<svg width="150" height="150" viewBox="0 0 150 150" fill="none" xmlns="http://www.w3.org/2000/svg">
<circle cx="75" cy="75" r="75" fill="black"/>
<path fill-rule="evenodd" clip-rule="evenodd" d="M51.3771 52H62.8628L81.2342 97.9428H68.8584L66.5612 92.2H47.6672L45.3701 97.9428H33L51.3771 52ZM106.514 52H118V97.9428H100.771L99.7607 97.9141C95.2835 97.6553 91.0837 95.661 88.0536 92.3549C85.0236 89.0487 83.4021 84.6914 83.5337 80.2087C83.6653 75.726 85.5396 71.4713 88.7584 68.3486C91.9772 65.2259 96.2868 63.4814 100.771 63.4857H106.514V52ZM100.771 86.4571H106.514V74.9714H100.771L100.1 75.0116C98.7037 75.1776 97.4173 75.8498 96.4839 76.9008C95.5505 77.9518 95.035 79.3086 95.035 80.7143C95.035 82.1199 95.5505 83.4767 96.4839 84.5277C97.4173 85.5787 98.7037 86.2509 100.1 86.4169L100.771 86.4571ZM61.9727 80.7143L57.12 68.5681L52.2558 80.7143H61.9727Z" fill="white"/>
</svg>
