<svg width="150" height="150" viewBox="0 0 150 150" fill="none" xmlns="http://www.w3.org/2000/svg">
<circle cx="75" cy="75" r="75" fill="black"/>
<path fill-rule="evenodd" clip-rule="evenodd" d="M43.8371 69.6005L69.6006 43.837L59.8818 34.1184C58.3906 32.6272 55.9732 32.6272 54.482 34.1184L34.118 54.4822C33.4024 55.1982 33 56.1696 33.0002 57.1822C33 58.195 33.4024 59.1658 34.1185 59.8819L43.8371 69.6005ZM59.8815 115.882C59.1657 116.598 58.1946 117.001 57.182 117.001H36.8185C34.7093 117.001 33.0003 115.291 33.0003 113.183L33 92.8188C33 91.8062 33.4022 90.8349 34.1182 90.1191L46.0499 78.1877L49.2371 75.0005L69.6006 54.6367L95.3642 80.4002L75.0006 100.764L59.8815 115.882ZM80.4001 106.164L106.164 80.4002L115.882 90.1191C116.599 90.8349 117.001 91.8057 117.001 92.8186C117.001 93.8314 116.599 94.8025 115.882 95.5188L95.5182 115.882C94.7731 116.628 93.7957 117.001 92.8187 117.001C91.8415 117.001 90.8645 116.628 90.1187 115.883L80.4001 106.164ZM115.882 59.8821L102.502 73.2617L100.764 75.001L75.0006 49.2375L77.8765 46.3611L90.1187 34.1189C91.6098 32.6275 94.0275 32.6275 95.5184 34.1186L115.882 54.4824C116.599 55.1985 117.001 56.1696 117.001 57.1824C117.001 58.1947 116.599 59.1661 115.882 59.8821Z" fill="white"/>
</svg>
