<svg width="150" height="150" viewBox="0 0 150 150" fill="none" xmlns="http://www.w3.org/2000/svg">
<circle cx="75" cy="75" r="75" fill="black"/>
<path fill-rule="evenodd" clip-rule="evenodd" d="M34.25 137.974C27.7571 133.764 21.9563 128.577 17.0559 122.621C17.3856 118.206 19.1646 114.006 22.1384 110.688C25.4482 106.996 30.0048 104.655 34.9343 104.115L35.9059 104.035C34.9909 107.121 34.4504 110.307 34.296 113.522L34.25 115.5V137.974ZM45.75 144.082V115.5C45.75 107.875 48.779 100.562 54.1707 95.1707C59.5624 89.779 66.8751 86.75 74.5 86.75C82.125 86.75 89.4377 89.779 94.8294 95.1707C100.221 100.562 103.25 107.875 103.25 115.5V144.498C94.5309 148.045 84.9937 150 75 150C64.6229 150 54.738 147.892 45.75 144.082ZM131.997 123.75C127.046 129.533 121.23 134.554 114.75 138.612V115.5C114.75 111.515 114.175 107.668 113.094 104.035C118.211 104.346 123.016 106.599 126.529 110.332C129.957 113.974 131.903 118.759 131.997 123.75ZM35.9059 104.035L35.9118 104.035H35.906C35.906 104.035 35.9059 104.035 35.9059 104.035ZM47.2897 73.7103C44.5939 71.0145 40.9375 69.5 37.125 69.5C33.3126 69.5 29.6562 71.0145 26.9604 73.7103C24.2645 76.4062 22.75 80.0625 22.75 83.875C22.75 87.6875 24.2645 91.3438 26.9604 94.0397C29.6562 96.7355 33.3126 98.25 37.125 98.25C40.9375 98.25 44.5939 96.7355 47.2897 94.0397C49.9855 91.3438 51.5 87.6875 51.5 83.875C51.5 80.0625 49.9855 76.4062 47.2897 73.7103ZM122.04 73.7103C119.344 71.0145 115.688 69.5 111.875 69.5C108.063 69.5 104.406 71.0145 101.71 73.7103C99.0145 76.4062 97.5 80.0625 97.5 83.875C97.5 87.6875 99.0145 91.3438 101.71 94.0397C104.406 96.7355 108.063 98.25 111.875 98.25C115.688 98.25 119.344 96.7355 122.04 94.0397C124.736 91.3438 126.25 87.6875 126.25 83.875C126.25 80.0625 124.736 76.4062 122.04 73.7103ZM90.7635 41.7365C86.4502 37.4232 80.6 35 74.5 35C68.4001 35 62.5499 37.4232 58.2366 41.7365C53.9232 46.0499 51.5 51.9 51.5 58C51.5 64.1 53.9232 69.9501 58.2366 74.2635C62.5499 78.5768 68.4001 81 74.5 81C80.6 81 86.4502 78.5768 90.7635 74.2635C95.0768 69.9501 97.5 64.1 97.5 58C97.5 51.9 95.0768 46.0499 90.7635 41.7365Z" fill="white"/>
</svg>
