<svg width="150" height="150" viewBox="0 0 150 150" fill="none" xmlns="http://www.w3.org/2000/svg">
<circle cx="75" cy="75" r="75" fill="black"/>
<path d="M98.5004 83C103.055 83 106.775 86.5818 106.99 91.0855L107 91.4974V93C107 100.511 103.117 106.134 97.1596 109.76C91.3018 113.327 83.4278 115 75 115C66.5722 115 58.6982 113.327 52.8404 109.76C47.0639 106.244 43.2373 100.85 43.0106 93.6776L43 93V91.4978C43 86.9407 46.5859 83.2245 51.0881 83.0098L51.4998 83H98.5004ZM75 35C86.0456 35 95 43.9543 95 55C95 66.0456 86.0456 75 75 75C63.9544 75 55 66.0456 55 55C55 43.9543 63.9544 35 75 35Z" fill="white"/>
</svg>
