<svg width="150" height="150" viewBox="0 0 150 150" fill="none" xmlns="http://www.w3.org/2000/svg">
<circle cx="75" cy="75" r="75" fill="black"/>
<path fill-rule="evenodd" clip-rule="evenodd" d="M70.4262 51.4638C70.4262 42.3857 63.0405 35 53.9624 35C44.8844 35 37.4987 42.3857 37.4987 51.4638C37.4987 60.5418 44.8844 67.9275 53.9624 67.9275C63.0405 67.9275 70.4262 60.5418 70.4262 51.4638ZM112.649 115C113.919 115 115.088 114.308 115.699 113.195C116.31 112.081 116.265 110.724 115.583 109.653L89.517 68.7461C88.8784 67.7439 87.772 67.137 86.5836 67.137C85.395 67.137 84.2889 67.7437 83.6503 68.7461L66.8744 95.0733L58.288 81.5983C57.6494 80.5961 56.5433 79.9892 55.3547 79.9892C54.166 79.9892 53.0599 80.5961 52.4213 81.5983L34.5449 109.653C33.8625 110.723 33.818 112.081 34.4287 113.195C35.0393 114.308 36.2082 115 37.4782 115H112.649Z" fill="white"/>
</svg>
