<svg width="150" height="150" viewBox="0 0 150 150" fill="none" xmlns="http://www.w3.org/2000/svg">
<path fill-rule="evenodd" clip-rule="evenodd" d="M0 75C0 33.5786 33.5786 0 75 0C116.421 0 150 33.5786 150 75C150 116.421 116.421 150 75 150C33.5786 150 0 116.421 0 75Z" fill="black"/>
<path fill-rule="evenodd" clip-rule="evenodd" d="M72.4237 104.177C74.7966 104.177 75.3889 106.048 76.322 117.024L76.9152 123.915L74.1186 124.425C70.5584 125.192 66.0678 125.192 65.3898 124.425C64.2881 123.319 64.7957 119.151 66.5754 115.067C67.5932 112.855 68.7788 109.453 69.3729 107.581C70.2203 104.859 70.8135 104.177 72.4237 104.177ZM98.3635 102.957C98.8432 102.97 99.1398 103.008 99.2025 103.071C100.305 104.177 98.2711 108.347 95.8135 109.792C92.6779 111.664 88.3559 111.835 84.4576 110.132C82.0847 109.112 81.661 108.516 81.9152 106.559C82.1695 104.177 82.2542 104.177 90.4745 103.412C93.8431 103.093 96.9254 102.917 98.3635 102.957ZM47.8475 85.4602C48.3559 85.1204 48.6949 85.8857 48.6949 87.0772C48.6949 88.2679 48.3559 89.2882 47.8475 89.2882C47.4237 89.2882 47 88.523 47 87.673C47 86.7374 47.4237 85.7162 47.8475 85.4602ZM58.194 79.1433C58.5678 79.3247 58.9068 79.9518 59.2034 81.0365C59.4568 82.0577 59.7118 87.5874 59.7118 93.2874C59.7118 102.816 59.8813 103.837 61.4068 104.773C63.4398 106.048 63.6101 108.261 61.7449 110.047C60.389 111.493 51.661 112.004 50.9831 110.814C50.4746 110.047 52.4229 97.1153 54.1187 89.2882C55.6441 82.0789 57.0737 78.6009 58.194 79.1433ZM87.0737 66.3925C89.3304 66.106 92.466 66.8289 95.983 68.6153C101.491 71.423 102.932 73.8908 102.932 80.6111C102.932 84.9501 102.508 86.3111 100.136 89.7145C98.1864 92.6077 96.322 94.2229 93.6101 95.3297C90.644 96.5204 87.4237 96.8611 78.7796 96.8611C72.7618 96.8611 67.0847 96.5204 66.322 96.0102C64.5423 94.989 64.2881 91.5865 65.983 90.2255C66.8305 89.5441 68.0169 89.7145 70.8983 90.9907C74.2881 92.4365 75.4746 92.5221 82.0847 91.8407C92.3389 90.6501 99.5423 86.9069 99.5423 82.7382C99.5423 78.2289 96.1525 75.5916 88.9491 74.4009C84.7966 73.7204 83.4406 72.6136 83.4406 70.2314C83.4406 67.9772 84.8177 66.6797 87.0737 66.3925ZM75.5415 53.6272C76.0466 53.4823 76.6398 53.6416 77.3389 54.0671C78.9482 55.1738 79.0339 57.045 77.9322 73.9747C77.5923 80.0153 76.8304 84.8645 76.322 85.2051C75.0508 86.056 73.9491 86.056 72.5084 85.1204C71.5762 84.5246 71.4059 83.078 71.9152 78.484C72.2534 75.3365 72.7618 68.8704 72.9321 64.1908C73.3135 57.2365 74.0279 54.062 75.5415 53.6272ZM51.322 50.1544C51.9144 50.1544 52.0847 51.0044 51.7457 52.5357C50.0508 60.1925 50.0508 60.1925 53.1864 63.3408C56.0678 66.2331 56.322 66.3188 60.7288 65.8077C66.2373 65.1272 67.9313 66.4035 66.4915 70.0611C65.6432 72.4433 64.372 72.6136 57.5932 71.5077C53.8644 70.8272 51.2373 69.6357 49.2034 67.5086C46.4915 64.7865 48.2712 50.1544 51.322 50.1544ZM84.3593 43.951C90.2626 44.2781 96.6186 45.7298 98.7804 47.5162C99.7118 48.2815 100.559 50.0688 100.644 51.4298C100.813 53.6425 100.474 53.9823 98.6948 54.1527C97.5084 54.2374 92.9321 52.9611 88.5254 51.4298C84.1186 49.8128 78.7796 48.4518 76.661 48.2815C73.5254 48.112 72.8474 47.7713 72.8474 46.3247C72.8474 44.8789 73.6093 44.5383 78.7796 44.0281C80.4745 43.8578 82.3915 43.8417 84.3593 43.951ZM64.1288 36.701C64.9237 36.7756 65.5169 36.9247 65.7279 37.1366C66.661 38.073 64.8813 48.8772 62.9322 54.2374C60.3051 61.0442 59.4568 60.1069 58.3559 49.7289C58.1017 46.9205 57.8474 42.9222 57.7618 40.7959L57.5932 36.9662L61.3212 36.712C62.3389 36.6264 63.3347 36.6264 64.1288 36.701ZM77.7305 25.0027C80.2627 24.9705 82.9745 25.2264 83.6949 25.8222C85.2203 27.0129 84.2025 31.0959 81.7457 33.8188C79.8813 35.8612 75.983 36.3713 75.389 34.6696C75.2203 34.0739 74.6271 32.0323 73.9491 30.1603C73.3559 28.2891 72.8474 26.4171 72.8474 25.9069C72.8474 25.3536 75.1991 25.0349 77.7305 25.0027Z" fill="white" stroke="white" stroke-width="4" stroke-miterlimit="8"/>
</svg>
