<svg width="150" height="150" viewBox="0 0 150 150" fill="none" xmlns="http://www.w3.org/2000/svg">
<circle cx="75" cy="75" r="75" fill="black"/>
<path d="M119.72 89.6993C119.72 88.4718 119.052 87.4352 118.095 86.8561V71.8896L125 68.385L75 43L25 68.385L47.4471 79.7809V97.6498C47.4471 97.6498 57.5035 107.269 75.3642 107.269C93.2218 107.269 102.55 97.6498 102.55 97.6498V79.7809L114.887 73.5153V86.8528C113.933 87.4352 113.262 88.4685 113.262 89.696C113.262 90.7885 113.794 91.7066 114.57 92.322L112.745 102.747H120.236L118.412 92.322C119.188 91.7132 119.72 90.7918 119.72 89.6993Z" fill="white"/>
</svg>
