<svg width="150" height="150" viewBox="0 0 150 150" fill="none" xmlns="http://www.w3.org/2000/svg">
<circle cx="75" cy="75" r="75" fill="black"/>
<path d="M104.496 41.9814H98.116C97.6654 38.0577 94.3255 35 90.2829 35H60.1567C56.1141 35 52.7742 38.0577 52.3236 41.9814H45.9433C42.6608 41.9814 40 44.6423 40 47.9247V60.2516C40 63.5341 42.6608 66.195 45.9433 66.195H52.2699V69.7546C52.2699 72.5631 53.7808 75.1802 56.2132 76.5846L67.7025 83.218V88.6649H66.726C63.6315 88.6649 61.114 91.1825 61.114 94.277V103.466H55.387C52.2069 103.466 49.6198 106.053 49.6198 109.233C49.6198 112.413 52.2069 115 55.387 115H95.0526C98.2327 115 100.82 112.413 100.82 109.233C100.82 106.053 98.2327 103.466 95.0526 103.466H89.3252V94.277C89.3252 91.1825 86.8076 88.6649 83.7131 88.6649H82.7367V83.218L94.226 76.5846C96.6584 75.1804 98.1693 72.5631 98.1693 69.7546V66.195H104.496C107.778 66.195 110.439 63.5341 110.439 60.2516V47.9247C110.439 44.6425 107.779 41.9814 104.496 41.9814ZM46.6037 59.5913V48.5851H52.2699V59.5913H46.6037ZM103.836 59.5913H98.1695V48.5851H103.836V59.5913Z" fill="white"/>
</svg>
