<svg width="150" height="150" viewBox="0 0 150 150" fill="none" xmlns="http://www.w3.org/2000/svg">
<circle cx="75" cy="75" r="75" fill="black"/>
<path fill-rule="evenodd" clip-rule="evenodd" d="M43 142.85V125.5C43 107.551 57.5507 93 75.5 93C93.4493 93 108 107.551 108 125.5V142.369C98.0418 147.256 86.8414 150 75 150C63.5534 150 52.7057 147.436 43 142.85ZM52.4573 88.5492H97.3227C99.7233 88.5492 101.67 86.603 101.67 84.2023V61.7695V61.7688C101.67 48.3033 91.6718 37.0731 78.7231 35.2647H78.7233C62.3412 32.9955 48.1104 45.6107 48.1104 61.7688V61.7695V84.2023C48.1104 86.603 50.0562 88.5492 52.4573 88.5492ZM61.0796 50.1049C67.5236 61.0002 81.0505 65.8956 92.9754 61.6736L92.9756 61.7223L92.9756 61.7688C92.9756 71.7415 84.8623 79.8546 74.8899 79.8546C64.9172 79.8546 56.8039 71.7412 56.8039 61.7688C56.8041 57.4256 58.3748 53.3109 61.0796 50.1049Z" fill="white"/>
</svg>
