<svg width="150" height="150" viewBox="0 0 150 150" fill="none" xmlns="http://www.w3.org/2000/svg">
<circle cx="75" cy="75" r="75" fill="black"/>
<path d="M75 35C52.944 35 35 52.944 35 75C35 97.056 52.944 114.839 75 114.839C97.056 114.839 115 97.056 115 75C115 52.944 97.056 35 75 35ZM77.6667 76.1707C77.6667 77.6427 76.472 78.8373 75 78.8373H53.6667C52.1947 78.8373 51 77.6427 51 76.1707C51 74.6987 52.1947 73.504 53.6667 73.504H72.3333V44.1707C72.3333 42.6987 73.528 41.504 75 41.504C76.472 41.504 77.6667 42.6987 77.6667 44.1707V76.1707Z" fill="white"/>
</svg>
