<svg width="342" height="342" xmlns="http://www.w3.org/2000/svg" xmlns:xlink="http://www.w3.org/1999/xlink" overflow="hidden"><defs><clipPath id="clip0"><rect x="469" y="189" width="342" height="342"/></clipPath></defs><g clip-path="url(#clip0)" transform="translate(-469 -189)"><path d="M469.951 359.98C469.951 266.092 546.063 189.98 639.951 189.98 733.839 189.98 809.951 266.092 809.951 359.98 809.951 453.868 733.839 529.98 639.951 529.98 546.063 529.98 469.951 453.868 469.951 359.98Z" fill="#06D6A0" fill-rule="evenodd"/><path d="M495 360C495 279.919 559.919 215 640 215 720.081 215 785 279.919 785 360 785 440.081 720.081 505 640 505 559.919 505 495 440.081 495 360Z" fill="#13BF9E" fill-rule="evenodd"/><path d="M533.5 360.5C533.5 301.406 581.406 253.5 640.5 253.5 699.595 253.5 747.5 301.406 747.5 360.5 747.5 419.595 699.595 467.5 640.5 467.5 581.406 467.5 533.5 419.595 533.5 360.5Z" stroke="#06D6A0" stroke-width="3" stroke-miterlimit="8" fill="none" fill-rule="evenodd"/><path d="M525.783 284.771C524.874 284.072 544.267 259.409 555.799 250.204 567.331 240.998 587.621 230.825 594.974 229.539 602.327 228.252 605.538 238.341 599.918 242.484 594.297 246.627 573.756 247.055 561.251 254.397 548.746 261.74 526.691 285.47 525.783 284.771Z" fill="#06D6A0" fill-rule="evenodd"/><path d="M648.99 373.484C650.344 374.44 651.422 375.725 652.616 376.87 654.966 379.125 657.31 381.374 659.625 383.67 665.322 389.319 671.274 394.919 677.511 399.971 684.451 405.592 691.68 410.847 699.022 415.926 703.775 419.214 709.19 422.242 713.274 426.372 717.033 430.175 719.083 435.364 719.083 440.674 719.083 443.727 718.387 446.663 716.16 448.898 710.207 454.872 698.88 451.284 693.746 445.988 689.952 442.075 687.106 437.147 684.03 432.669 678.995 425.336 673.865 417.993 668.263 411.081 663.284 404.937 657.917 399.005 652.373 393.374 650.169 391.136 648.048 388.817 645.847 386.582 644.226 384.936 642.345 383.383 641.014 381.488ZM567.485 271.98C571.346 272.031 575.297 272.824 578.898 273.861 593.135 277.964 606.083 288.458 610.554 302.898 612.154 308.064 613.069 313.516 613.439 318.907 613.792 324.058 613.842 329.19 615.327 334.189 617.584 341.791 622.833 346.851 628.208 352.381 629.878 354.099 631.589 355.778 633.28 357.475 633.924 358.121 635.141 358.973 635.372 359.9 635.588 360.769 634.531 361.551 634.005 362.083L629.896 366.207C629.37 366.733 628.719 367.632 627.963 367.821 627.18 368.017 626.518 367.171 626.029 366.691 624.727 365.411 623.451 364.104 622.162 362.811 617.044 357.676 612.181 352.08 605.485 349.059 599.312 346.274 593.183 346.745 586.632 346.295 576.573 345.604 566.237 344.067 557.87 337.967 554.775 335.71 552.207 332.823 549.846 329.823 539.166 316.249 533.721 294.585 546.129 280.341 547.95 278.251 550.346 276.576 552.794 275.309 556.251 273.519 559.844 272.706 563.671 272.196 564.921 272.029 566.198 271.963 567.485 271.98ZM715.479 268.001C716.943 267.938 716.525 270.16 715.673 271.123 712.279 274.957 708.586 278.574 705.055 282.28 701.552 285.957 697.993 289.577 694.431 293.196 691.468 296.204 688.58 299.318 685.707 302.413 684.546 303.664 682.974 304.795 682.125 306.294 680.581 309.02 682.958 312.169 685.97 311.119 688.841 310.118 691.022 306.635 693.221 304.637 700.096 298.394 706.331 291.414 713.282 285.261 716.033 282.826 718.551 280.136 721.258 277.651 722.013 276.958 723.456 275.385 724.495 276.568 725.39 277.585 724.159 278.839 723.508 279.571 721.557 281.768 719.445 283.789 717.414 285.909 709.829 293.824 702.401 301.92 694.671 309.69L693.463 310.903C691.676 312.696 687.458 316.543 691.069 318.905 693.881 320.745 696.263 317.451 698.055 315.776 698.687 315.185 699.364 314.646 699.989 314.047 707.599 306.743 715.264 299.454 722.708 291.983 724.918 289.766 727.196 287.589 729.476 285.444 730.17 284.791 731.535 283.669 732.472 284.61 733.409 285.551 732.291 286.92 731.641 287.617 729.506 289.902 727.331 292.194 725.125 294.409 717.593 301.971 710.38 309.845 702.89 317.452 700.92 319.453 695.743 323.49 698.634 326.615 701.687 329.915 706.005 324.27 707.965 322.303 715.477 314.765 723.152 307.277 730.926 300.009 733.206 297.877 735.349 295.539 737.694 293.483 738.468 292.805 740.064 291.62 740.826 292.989 741.486 294.176 740.111 295.359 739.386 296.107 737.146 298.414 734.81 300.726 732.687 303.141 728.691 307.687 724.272 311.9 720.053 316.239 714.563 321.888 709.177 327.635 703.614 333.219L696.847 340.01C694.856 342.008 692.995 343.942 690.321 344.991 687.345 346.159 684.011 345.976 680.895 346.387 675.821 347.056 670.603 348.799 666.393 351.759 662.608 354.421 659.495 357.848 656.241 361.113L642.706 374.697C629.105 388.347 614.9 401.97 603.554 417.63 599.191 423.65 594.926 429.725 590.673 435.822 588.646 438.729 586.773 441.904 584.415 444.555 580.038 449.474 574.109 452.113 567.538 451.822 566.305 451.767 565.054 451.46 563.912 450.994 560.005 449.397 558.254 445.875 557.83 441.886 557.238 436.318 559.839 429.955 563.916 426.161 567.628 422.707 572.083 420.014 576.239 417.139 582.622 412.723 588.975 408.241 595.091 403.459 606.607 394.454 616.586 383.948 627.237 373.991 633.115 368.496 638.716 362.692 644.398 356.99 648.254 353.12 652.452 349.404 655.839 345.104 659.404 340.578 661.748 335.283 662.661 329.58 663.287 325.672 662.961 321.316 664.766 317.695 665.979 315.261 668.123 313.29 670.018 311.388 672.725 308.671 675.436 305.979 678.236 303.362 681.147 300.64 683.847 297.685 686.695 294.897 691.344 290.346 696.115 285.918 700.714 281.31 703.696 278.322 706.882 275.527 709.898 272.574 711.303 271.2 712.862 268.905 714.732 268.179 715.023 268.066 715.27 268.01 715.479 268.001Z" fill="#FFFFFF" fill-rule="evenodd"/></g></svg>