<svg width="65" height="67" xmlns="http://www.w3.org/2000/svg" xmlns:xlink="http://www.w3.org/1999/xlink" overflow="hidden"><defs><clipPath id="clip0"><rect x="915" y="274" width="65" height="67"/></clipPath></defs><g clip-path="url(#clip0)" transform="translate(-915 -274)"><path d="M943.28 328.388 939.905 318.756 933 306.831 936.529 296.281 946.042 292 956.169 294.141 961.386 301.326 962 311.417 953.714 323.037 952.947 329 943.28 328.388Z" fill="#262626" fill-rule="evenodd"/><path d="M1.40713 10.7067C1.11925 10.598 0.679841 10.2959 0.422281 10.0422L-0.0474279 9.57107-0.0474279 5.43929-0.0474279 1.30748 0.361658 0.81215C1.34651-0.371803 3.55866-0.371803 4.54351 0.81215L4.95259 1.30748 4.95259 5.43929 4.95259 9.57107 4.48288 10.0422C3.92229 10.598 3.17985 10.9242 2.45258 10.9242 2.1647 10.9242 1.69501 10.8275 1.40713 10.7067Z" fill="#262626" fill-rule="evenodd" transform="matrix(1 0 0 -1 945 286)"/><path d="M1.19301 9.79459C0.803932 9.61872 0.366201 9.15877 0.147336 8.69883-0.0715289 8.22534-0.0715289 7.18368 0.147336 6.72375 0.414834 6.1691 5.82562 0.230309 6.2147 0.0679846 7.39414-0.419027 8.69515 0.40618 8.92617 1.78603 9.10857 2.89533 9.02346 3.0306 6.02017 6.41259 4.4638 8.14418 3.02904 9.6593 2.81018 9.75399 2.36029 9.97045 1.63074 9.98397 1.19301 9.79459Z" fill="#262626" fill-rule="evenodd" transform="matrix(1 0 0 -1 925 293)"/><path d="M6.74711 9.77046C6.53155 9.67561 4.94182 8.15792 3.21734 6.42342-0.110334 3.03573-0.204635 2.90023-0.00254421 1.78906 0.253432 0.406883 1.69497-0.419715 3.0018 0.0680992 3.4329 0.230716 9.42812 6.1795 9.72451 6.73508 10.1961 7.64298 9.84576 8.91676 8.94311 9.5943 8.48504 9.94663 7.29948 10.0415 6.74711 9.77046Z" fill="#262626" fill-rule="evenodd" transform="matrix(1 0 0 -1 961 293)"/><path d="M14.4596 39.9205C12.0705 39.4812 11.3075 39.2679 9.69399 38.5526 7.89283 37.762 6.4544 36.7707 4.9034 35.2522 2.25169 32.6546 0.600636 29.3793 0.0627911 25.7025-0.149849 24.2217-0.0122693 21.0342 0.312953 19.7291 1.10096 16.5542 2.11411 14.7221 5.0535 11.2209 6.76711 9.17544 7.46755 8.20916 8.0179 7.12995 8.65582 5.84995 8.73087 5.51113 8.81843 3.34015 8.89348 1.31977 8.90598 1.25702 9.2437 0.805265 9.90663-0.0606267 9.65647-0.0355304 16.4358-0.0355304L22.5523-0.0355304 22.9775 0.253094C23.8156 0.817813 23.9157 1.10644 24.0032 3.26486 24.0658 4.98408 24.1033 5.2978 24.416 6.06329 25.0414 7.63191 25.6918 8.58564 28.331 11.7605 30.7951 14.7095 31.8708 16.7174 32.6088 19.7291 32.934 21.0342 33.0715 24.2217 32.8589 25.7025 32.4461 28.526 31.2704 31.3244 29.5318 33.5958 28.9064 34.4114 27.2678 36.0428 26.4673 36.6452 24.6036 38.0632 22.2145 39.155 19.838 39.682 18.9249 39.8828 15.1725 40.0459 14.4596 39.9205ZM19.05 35.5283C23.5779 34.5871 27.2678 31.0232 28.4185 26.4679 29.1815 23.4436 28.8313 20.4068 27.3929 17.6837 26.7925 16.5291 26.5924 16.2656 24.8287 14.1448 21.4516 10.0915 20.1257 7.63191 19.888 5.04682L19.8005 4.10564 16.3858 4.10564 12.9586 4.10564 12.9586 4.83348C12.9586 5.95034 12.5333 7.40602 11.7828 8.937 11.0323 10.4429 10.0942 11.7605 8.14299 14.0821 6.39186 16.1778 6.15421 16.4789 5.59135 17.5456 2.33924 23.6068 4.61571 31.086 10.7071 34.3863 12.033 35.1016 13.2713 35.4781 15.3977 35.7793 16.0356 35.8671 18.0869 35.7291 19.05 35.5283Z" fill="#262626" fill-rule="evenodd" transform="matrix(1 0 0 -1 931 330)"/><path d="M1.52037 3.78247C-0.341973 3.19466-0.553309 1.04333 1.16375 0.23218 1.7185-0.0382041 1.79774-0.0382041 5.98476-0.0382041 10.185-0.0382041 10.2378-0.0382041 10.819 0.23218 12.6021 1.0786 12.2851 3.38276 10.3171 3.82949 9.45852 4.02934 2.15438 3.99406 1.52037 3.78247Z" fill="#262626" fill-rule="evenodd" transform="matrix(1 0 0 -1 916 308)"/><path d="M1.38932 3.81495C0.795923 3.62641 0.505289 3.39073 0.190438 2.90761-0.366611 2.00028 0.00878564 0.75122 1.0139 0.232727 1.54673-0.0382942 1.59517-0.0382942 5.44611-0.0382942 9.28492-0.0382942 9.35758-0.0382942 9.86621 0.232727 11.4889 1.06937 11.1983 3.36717 9.40603 3.8503 8.7642 4.01527 1.93426 3.99171 1.38932 3.81495Z" fill="#262626" fill-rule="evenodd" transform="matrix(1 0 0 -1 968 308)"/><path d="M6.13331 8.76822C5.5378 8.48806 0.312027 3.25069 0.117592 2.75131-0.38068 1.41151 0.567239-0.0135361 1.96484-0.0135361 2.29296-0.0135361 2.70617 0.0595389 2.88847 0.156972 3.38674 0.42493 8.72189 5.84502 8.86773 6.23477 9.20801 7.14827 8.7705 8.25664 7.89549 8.71948 7.26353 9.06053 6.77741 9.07271 6.13331 8.76822Z" fill="#262626" fill-rule="evenodd" transform="matrix(1 0 0 -1 925 329)"/><path d="M1.14271 8.71948C0.170468 8.25664-0.315655 7.14827 0.0624486 6.23477 0.224478 5.84502 6.15242 0.42493 6.70605 0.156972 6.90861 0.0595389 7.36773-0.0135361 7.73231-0.0135361 9.2852-0.0135361 10.3385 1.41151 9.78482 2.75131 9.56877 3.25069 3.76235 8.48806 3.10069 8.76822 2.38501 9.07271 1.84488 9.06053 1.14271 8.71948Z" fill="#262626" fill-rule="evenodd" transform="matrix(1 0 0 -1 961 329)"/><path d="M1.36925 3.90101C0.847925 3.75816 0.115584 2.96052 0.00386179 2.4367-0.132667 1.69859 0.0535255 1.16287 0.636909 0.615249 1.04653 0.246187 1.3196 0.103337 1.71679 0.0438158 2.01469 0.00808708 4.7951-0.0157213 7.89823 0.00808708L13.5459 0.0438158 14.0176 0.329532C14.2783 0.472383 14.5886 0.805732 14.7251 1.06764 15.2216 1.99623 14.9113 3.16291 14.0176 3.68672L13.5459 3.97246 7.64998 3.99626C4.32342 4.00817 1.58027 3.97246 1.36925 3.90101Z" fill="#262626" fill-rule="evenodd" transform="matrix(1 0 0 -1 940 335)"/><path d="M1.47268 3.91996C-0.277255 3.48104-0.594354 1.12036 0.991153 0.278111 1.48442 0.0171321 1.59013 0.00527018 4.44407 0.00527018 7.27449 0.00527018 7.42718 0.0171321 7.92045 0.278111 8.61338 0.633985 8.8835 1.03732 8.95397 1.83212 9.02444 2.65064 8.69559 3.29123 7.99091 3.69457 7.52113 3.96741 7.41543 3.97927 4.6907 4.003 3.14041 4.01486 1.69583 3.97927 1.47268 3.91996Z" fill="#262626" fill-rule="evenodd" transform="matrix(1 0 0 -1 943 340)"/></g></svg>