<svg width="384" height="397" xmlns="http://www.w3.org/2000/svg" xmlns:xlink="http://www.w3.org/1999/xlink" overflow="hidden"><defs><clipPath id="clip0"><rect x="755" y="109" width="384" height="397"/></clipPath></defs><g clip-path="url(#clip0)" transform="translate(-755 -109)"><path d="M919.392 436.281 898.905 377.707 857 305.186 878.418 241.033 936.153 215 997.614 228.017 1029.28 271.715 1033 333.079 982.714 403.74 978.058 440 919.392 436.281Z" fill="#FFC000" fill-rule="evenodd"/><path d="M7.03565 69.107C5.59625 68.4052 3.39921 66.4557 2.11141 64.8181L-0.237139 61.7769-0.237139 35.1081-0.237139 8.4392 1.80829 5.24206C6.73254-2.39982 17.7933-2.39982 22.7175 5.24206L24.763 8.4392 24.763 35.1081 24.763 61.7769 22.4144 64.8181C19.6115 68.4052 15.8993 70.5107 12.2629 70.5107 10.8235 70.5107 8.47506 69.8869 7.03565 69.107Z" fill="#FFC000" fill-rule="evenodd" transform="matrix(1 0 0 -1 935 180)"/><path d="M7.55574 55.8292C5.09157 54.8267 2.31928 52.205 0.93313 49.5833-0.453016 46.8845-0.453016 40.947 0.93313 38.3254 2.62728 35.1639 36.8956 1.31276 39.3598 0.387512 46.8295-2.38845 55.0693 2.31522 56.5324 10.1804 57.6876 16.5034 57.1486 17.2744 38.1277 36.5517 28.2707 46.4218 19.1839 55.058 17.7978 55.5978 14.9485 56.8315 10.328 56.9086 7.55574 55.8292Z" fill="#FFC000" fill-rule="evenodd" transform="matrix(1 0 0 -1 809 219)"/><path d="M39.1332 55.6916C37.883 55.151 28.6626 46.5001 18.6606 36.6135-0.63994 17.3036-1.18688 16.5313-0.0147564 10.1977 1.46991 2.31923 9.83084-2.39238 17.4104 0.388166 19.9108 1.31508 54.6831 35.2232 56.4022 38.39 59.1371 43.565 57.1054 50.8256 51.87 54.6875 49.2132 56.6958 42.337 57.2364 39.1332 55.6916Z" fill="#FFC000" fill-rule="evenodd" transform="matrix(1 0 0 -1 1029 219)"/><path d="M89.3863 246.509C74.6177 243.797 69.9011 242.479 59.9265 238.062 48.792 233.181 39.8999 227.059 30.3119 217.683 13.9196 201.642 3.71302 181.417 0.388163 158.713-0.926339 149.569-0.0758467 129.886 1.93462 121.827 6.80593 102.222 13.0691 90.9089 31.2398 69.2892 41.833 56.6583 46.163 50.6916 49.5652 44.0274 53.5087 36.1234 53.9726 34.0312 54.514 20.6254 54.9779 8.1496 55.0552 7.76207 57.1428 4.97251 61.241-0.37437 59.6945-0.2194 101.603-0.2194L139.414-0.2194 142.043 1.56286C147.224 5.04999 147.842 6.83225 148.383 20.1605 148.77 30.7767 149.002 32.7139 150.935 37.4408 154.801 47.127 158.822 53.0163 175.137 72.6213 190.37 90.8314 197.019 103.23 201.581 121.827 203.592 129.886 204.442 149.569 203.128 158.713 200.576 176.148 193.308 193.428 182.56 207.454 178.694 212.491 168.565 222.564 163.616 226.284 152.095 235.04 137.326 241.782 122.635 245.037 116.991 246.276 93.7937 247.284 89.3863 246.509ZM117.764 219.387C145.755 213.576 168.565 191.568 175.678 163.44 180.395 144.764 178.23 126.012 169.338 109.197 165.626 102.067 164.389 100.44 153.487 87.3443 132.61 62.315 124.413 47.127 122.944 31.1641L122.403 25.3523 101.294 25.3523 80.1077 25.3523 80.1077 29.8467C80.1077 36.7433 77.4787 45.7322 72.8393 55.186 68.2 64.4848 62.4008 72.6213 50.3385 86.9569 39.5133 99.8977 38.0442 101.757 34.5647 108.344 14.4608 145.772 28.5335 191.956 66.1896 212.336 74.3858 216.753 82.0407 219.077 95.1856 220.937 99.129 221.48 111.81 220.627 117.764 219.387Z" fill="#FFC000" fill-rule="evenodd" transform="matrix(1 0 0 -1 846 446)"/><path d="M8.86882 24.586C-1.99484 20.7653-3.22763 6.78165 6.78856 1.50917 10.0246-0.248327 10.4868-0.248327 34.9111-0.248327 59.4123-0.248327 59.7204-0.248327 63.1106 1.50917 73.512 7.01088 71.6629 21.9879 60.1828 24.8917 55.1747 26.1907 12.5672 25.9614 8.86882 24.586Z" fill="#FFC000" fill-rule="evenodd" transform="matrix(1 0 0 -1 756 314)"/><path d="M8.8411 24.7972C5.06496 23.5716 3.21548 22.0398 1.21188 18.8994-2.33298 13.0018 0.0559086 4.88293 6.45211 1.51273 9.84285-0.248912 10.1511-0.248912 34.6571-0.248912 59.0859-0.248912 59.5482-0.248912 62.785 1.51273 73.1113 6.95092 71.2618 21.8866 59.8566 25.0269 55.7722 26.0993 12.3089 25.9461 8.8411 24.7972Z" fill="#FFC000" fill-rule="evenodd" transform="matrix(1 0 0 -1 1069 314)"/><path d="M39.5258 55.532C35.6881 53.7577 2.01084 20.5877 0.757815 17.425-2.45327 8.93955 3.65554-0.0857285 12.6623-0.0857285 14.7769-0.0857285 17.4398 0.37708 18.6146 0.994157 21.8257 2.69122 56.2077 37.0185 57.1476 39.4869 59.3405 45.2724 56.521 52.2921 50.882 55.2234 46.8094 57.3834 43.6766 57.4605 39.5258 55.532Z" fill="#FFC000" fill-rule="evenodd" transform="matrix(1 0 0 -1 808 440)"/><path d="M6.51347 55.2234C0.971667 52.2921-1.79924 45.2724 0.355957 39.4869 1.27952 37.0185 35.0688 2.69122 38.2245 0.994157 39.3791 0.37708 41.996-0.0857285 44.0742-0.0857285 52.9256-0.0857285 58.9292 8.93955 55.7735 17.425 54.542 20.5877 21.4454 53.7577 17.6739 55.532 13.5946 57.4605 10.5158 57.3834 6.51347 55.2234Z" fill="#FFC000" fill-rule="evenodd" transform="matrix(1 0 0 -1 1030 440)"/><path d="M8.58064 25.3566C5.31366 24.4281 0.724326 19.2434 0.0242006 15.8386-0.83138 11.0409 0.335426 7.55868 3.9913 3.99912 6.55825 1.60022 8.26952 0.671689 10.7586 0.284803 12.6254 0.052566 30.0493-0.102188 49.4956 0.052566L84.8878 0.284803 87.8436 2.14196C89.4771 3.07049 91.4217 5.23726 92.2774 6.93966 95.3888 12.9755 93.4442 20.5589 87.8436 23.9637L84.8878 25.821 47.9399 25.9757C27.0934 26.0531 9.903 25.821 8.58064 25.3566Z" fill="#FFC000" fill-rule="evenodd" transform="matrix(1 0 0 -1 900 476)"/><path d="M9.65424 25.4798C-1.81756 22.6268-3.89632 7.28231 6.49756 1.80772 9.73122 0.111359 10.4242 0.0342562 29.1333 0.0342562 47.6883 0.0342562 48.6893 0.111359 51.9229 1.80772 56.4655 4.1209 58.2363 6.7426 58.6982 11.9088 59.1602 17.2292 57.0044 21.393 52.3849 24.0147 49.3052 25.7882 48.6123 25.8653 30.7502 26.0195 20.5871 26.0966 11.1171 25.8653 9.65424 25.4798Z" fill="#FFC000" fill-rule="evenodd" transform="matrix(1 0 0 -1 918 505)"/></g></svg>