<svg width="385" height="397" xmlns="http://www.w3.org/2000/svg" xmlns:xlink="http://www.w3.org/1999/xlink" overflow="hidden"><defs><clipPath id="clip0"><rect x="177" y="162" width="385" height="397"/></clipPath></defs><g clip-path="url(#clip0)" transform="translate(-177 -162)"><path d="M341.392 489.265 320.905 430.43 279 357.587 300.418 293.149 358.153 267 419.614 280.074 451.275 323.967 455 385.603 404.714 456.579 400.058 493 341.392 489.265Z" fill="#FFE699" fill-rule="evenodd"/><path d="M7.03565 69.107C5.59625 68.4052 3.39921 66.4557 2.11141 64.8181L-0.237139 61.7769-0.237139 35.1081-0.237139 8.4392 1.80829 5.24206C6.73254-2.39982 17.7933-2.39982 22.7175 5.24206L24.763 8.4392 24.763 35.1081 24.763 61.7769 22.4144 64.8181C19.6115 68.4052 15.8993 70.5107 12.2629 70.5107 10.8235 70.5107 8.47506 69.8869 7.03565 69.107Z" fill="#FFC000" fill-rule="evenodd" transform="matrix(1 0 0 -1 357 233)"/><path d="M7.55574 55.8292C5.09157 54.8267 2.31928 52.205 0.93313 49.5833-0.453016 46.8845-0.453016 40.947 0.93313 38.3254 2.62728 35.1639 36.8956 1.31276 39.3598 0.387512 46.8295-2.38845 55.0693 2.31522 56.5324 10.1804 57.6876 16.5034 57.1486 17.2744 38.1277 36.5517 28.2707 46.4218 19.1839 55.058 17.7978 55.5978 14.9485 56.8315 10.328 56.9086 7.55574 55.8292Z" fill="#FFC000" fill-rule="evenodd" transform="matrix(1 0 0 -1 231 272)"/><path d="M38.4585 55.6916C37.2298 55.151 28.1684 46.5001 18.3389 36.6135-0.628906 17.3036-1.16642 16.5313-0.014502 10.1977 1.44456 2.31923 9.66135-2.39238 17.1103 0.388166 19.5676 1.31508 53.7403 35.2232 55.4297 38.39 58.1175 43.565 56.1208 50.8256 50.9757 54.6875 48.3647 56.6958 41.607 57.2364 38.4585 55.6916Z" fill="#FFC000" fill-rule="evenodd" transform="matrix(1 0 0 -1 452 272)"/><path d="M89.3863 245.511C74.6177 242.81 69.9011 241.498 59.9265 237.099 48.792 232.236 39.8999 226.14 30.3119 216.801 13.9196 200.826 3.71302 180.683 0.388163 158.07-0.926339 148.963-0.0758467 129.361 1.93462 121.334 6.80593 101.809 13.0691 90.5408 31.2398 69.0087 41.833 56.4289 46.163 50.4863 49.5652 43.8492 53.5087 35.9772 53.9726 33.8935 54.514 20.5419 54.9779 8.11661 55.0552 7.73065 57.1428 4.95238 61.241-0.372854 59.6945-0.218512 101.603-0.218512L139.414-0.218512 142.043 1.55653C147.224 5.02955 147.842 6.80459 148.383 20.0789 148.77 30.6521 149.002 32.5815 150.935 37.2892 154.801 46.9362 158.822 52.8017 175.137 72.3272 190.37 90.4636 197.019 102.812 201.581 121.334 203.592 129.361 204.442 148.963 203.128 158.07 200.576 175.435 193.308 192.645 182.56 206.614 178.694 211.63 168.565 221.663 163.616 225.368 152.095 234.089 137.326 240.803 122.635 244.045 116.991 245.279 93.7937 246.283 89.3863 245.511ZM117.764 218.499C145.755 212.711 168.565 190.793 175.678 162.778 180.395 144.178 178.23 125.502 169.338 108.754 165.626 101.654 164.389 100.033 153.487 86.9907 132.61 62.0627 124.413 46.9362 122.944 31.0379L122.403 25.2497 101.294 25.2497 80.1077 25.2497 80.1077 29.7259C80.1077 36.5946 77.4787 45.5471 72.8393 54.9626 68.2 64.2237 62.4008 72.3272 50.3385 86.6049 39.5133 99.4933 38.0442 101.346 34.5647 107.905 14.4608 145.182 28.5335 191.179 66.1896 211.476 74.3858 215.875 82.0407 218.19 95.1856 220.043 99.129 220.583 111.81 219.734 117.764 218.499Z" fill="#FFC000" fill-rule="evenodd" transform="matrix(1 0 0 -1 268 498)"/><path d="M8.86882 24.586C-1.99484 20.7653-3.22763 6.78165 6.78856 1.50917 10.0246-0.248327 10.4868-0.248327 34.9111-0.248327 59.4123-0.248327 59.7204-0.248327 63.1106 1.50917 73.512 7.01088 71.6629 21.9879 60.1828 24.8917 55.1747 26.1907 12.5672 25.9614 8.86882 24.586Z" fill="#FFC000" fill-rule="evenodd" transform="matrix(1 0 0 -1 178 367)"/><path d="M8.8411 24.7972C5.06496 23.5716 3.21548 22.0398 1.21188 18.8994-2.33298 13.0018 0.0559086 4.88293 6.45211 1.51273 9.84285-0.248912 10.1511-0.248912 34.6571-0.248912 59.0859-0.248912 59.5482-0.248912 62.785 1.51273 73.1113 6.95092 71.2618 21.8866 59.8566 25.0269 55.7722 26.0993 12.3089 25.9461 8.8411 24.7972Z" fill="#FFC000" fill-rule="evenodd" transform="matrix(1 0 0 -1 491 367)"/><path d="M38.8443 55.532C35.0728 53.7577 1.97617 20.5877 0.744749 17.425-2.41097 8.93955 3.59251-0.0857285 12.444-0.0857285 14.5221-0.0857285 17.1391 0.37708 18.2936 0.994157 21.4493 2.69122 55.2386 37.0185 56.1623 39.4869 58.3174 45.2724 55.5465 52.2921 50.0048 55.2234 46.0023 57.3834 42.9236 57.4605 38.8443 55.532Z" fill="#FFC000" fill-rule="evenodd" transform="matrix(1 0 0 -1 231 493)"/><path d="M6.51347 55.2234C0.971667 52.2921-1.79924 45.2724 0.355957 39.4869 1.27952 37.0185 35.0688 2.69122 38.2245 0.994157 39.3791 0.37708 41.996-0.0857285 44.0742-0.0857285 52.9256-0.0857285 58.9292 8.93955 55.7735 17.425 54.542 20.5877 21.4454 53.7577 17.6739 55.532 13.5946 57.4605 10.5158 57.3834 6.51347 55.2234Z" fill="#FFC000" fill-rule="evenodd" transform="matrix(1 0 0 -1 452 493)"/><path d="M8.48935 25.3566C5.25714 24.4281 0.716621 19.2434 0.0239431 15.8386-0.822535 11.0409 0.331858 7.55868 3.94884 3.99912 6.48848 1.60022 8.18154 0.671689 10.6441 0.284803 12.4911 0.052566 29.7296-0.102188 48.969 0.052566L83.9847 0.284803 86.9091 2.14196C88.5252 3.07049 90.4492 5.23726 91.2958 6.93966 94.3741 12.9755 92.4501 20.5589 86.9091 23.9637L83.9847 25.821 47.4299 25.9757C26.8052 26.0531 9.79765 25.821 8.48935 25.3566Z" fill="#FFC000" fill-rule="evenodd" transform="matrix(1 0 0 -1 323 528)"/><path d="M9.65424 25.4798C-1.81756 22.6268-3.89632 7.28231 6.49756 1.80772 9.73122 0.111359 10.4242 0.0342562 29.1333 0.0342562 47.6883 0.0342562 48.6893 0.111359 51.9229 1.80772 56.4655 4.1209 58.2363 6.7426 58.6982 11.9088 59.1602 17.2292 57.0044 21.393 52.3849 24.0147 49.3052 25.7882 48.6123 25.8653 30.7502 26.0195 20.5871 26.0966 11.1171 25.8653 9.65424 25.4798Z" fill="#FFC000" fill-rule="evenodd" transform="matrix(1 0 0 -1 340 558)"/></g></svg>