<svg width="205" height="307" xmlns="http://www.w3.org/2000/svg" xmlns:xlink="http://www.w3.org/1999/xlink" overflow="hidden"><defs><clipPath id="clip0"><rect x="802" y="252" width="205" height="307"/></clipPath></defs><g clip-path="url(#clip0)" transform="translate(-802 -252)"><path d="M878.392 489.265 857.905 430.43 816 357.587 837.418 293.149 895.153 267 956.614 280.074 988.275 323.967 992 385.603 941.714 456.579 937.058 493 878.392 489.265Z" fill="#D6DCE5" fill-rule="evenodd"/><path d="M89.3863 245.511C74.6177 242.81 69.9011 241.498 59.9265 237.099 48.792 232.236 39.8999 226.14 30.3119 216.801 13.9196 200.826 3.71302 180.683 0.388163 158.07-0.926339 148.963-0.0758467 129.361 1.93462 121.334 6.80593 101.809 13.0691 90.5408 31.2398 69.0087 41.833 56.4289 46.163 50.4863 49.5652 43.8492 53.5087 35.9772 53.9726 33.8935 54.514 20.5419 54.9779 8.11661 55.0552 7.73065 57.1428 4.95238 61.241-0.372854 59.6945-0.218512 101.603-0.218512L139.414-0.218512 142.043 1.55653C147.224 5.02955 147.842 6.80459 148.383 20.0789 148.77 30.6521 149.002 32.5815 150.935 37.2892 154.801 46.9362 158.822 52.8017 175.137 72.3272 190.37 90.4636 197.019 102.812 201.581 121.334 203.592 129.361 204.442 148.963 203.128 158.07 200.576 175.435 193.308 192.645 182.56 206.614 178.694 211.63 168.565 221.663 163.616 225.368 152.095 234.089 137.326 240.803 122.635 244.045 116.991 245.279 93.7937 246.283 89.3863 245.511ZM117.764 218.499C145.755 212.711 168.565 190.793 175.678 162.778 180.395 144.178 178.23 125.502 169.338 108.754 165.626 101.654 164.389 100.033 153.487 86.9907 132.61 62.0627 124.413 46.9362 122.944 31.0379L122.403 25.2497 101.294 25.2497 80.1077 25.2497 80.1077 29.7259C80.1077 36.5946 77.4787 45.5471 72.8393 54.9626 68.2 64.2237 62.4008 72.3272 50.3385 86.6049 39.5133 99.4933 38.0442 101.346 34.5647 107.905 14.4608 145.182 28.5335 191.179 66.1896 211.476 74.3858 215.875 82.0407 218.19 95.1856 220.043 99.129 220.583 111.81 219.734 117.764 218.499Z" fill-rule="evenodd" transform="matrix(1 0 0 -1 803 498)"/><path d="M8.48935 25.3566C5.25714 24.4281 0.716621 19.2434 0.0239431 15.8386-0.822535 11.0409 0.331858 7.55868 3.94884 3.99912 6.48848 1.60022 8.18154 0.671689 10.6441 0.284803 12.4911 0.052566 29.7296-0.102188 48.969 0.052566L83.9847 0.284803 86.9091 2.14196C88.5252 3.07049 90.4492 5.23726 91.2958 6.93966 94.3741 12.9755 92.4501 20.5589 86.9091 23.9637L83.9847 25.821 47.4299 25.9757C26.8052 26.0531 9.79765 25.821 8.48935 25.3566Z" fill-rule="evenodd" transform="matrix(1 0 0 -1 858 528)"/><path d="M9.65424 25.4798C-1.81756 22.6268-3.89632 7.28231 6.49756 1.80772 9.73122 0.111359 10.4242 0.0342562 29.1333 0.0342562 47.6883 0.0342562 48.6893 0.111359 51.9229 1.80772 56.4655 4.1209 58.2363 6.7426 58.6982 11.9088 59.1602 17.2292 57.0044 21.393 52.3849 24.0147 49.3052 25.7882 48.6123 25.8653 30.7502 26.0195 20.5871 26.0966 11.1171 25.8653 9.65424 25.4798Z" fill-rule="evenodd" transform="matrix(1 0 0 -1 875 558)"/><path d="M915.569 267 883 332.127 913.708 374.924 898.82 414 927.667 373.994 911.847 331.196 950 287.468 915.569 267Z" fill-rule="evenodd"/></g></svg>