<svg width="150" height="150" viewBox="0 0 150 150" fill="none" xmlns="http://www.w3.org/2000/svg">
<circle cx="75" cy="75" r="75" fill="black"/>
<path fill-rule="evenodd" clip-rule="evenodd" d="M102.229 52.1436C103.987 50.3859 106.672 49.9515 108.895 51.0666C111.116 52.1811 112.374 54.594 112.016 57.0537L106.859 92.4686C106.446 95.3036 104.016 97.4059 101.151 97.4059H47.9256C45.0607 97.4059 42.6301 95.3036 42.2173 92.4686L37.0606 57.054C36.702 54.5943 37.9602 52.1813 40.1819 51.0671C42.4045 49.9518 45.0901 50.3865 46.8478 52.1438L58.1541 63.4505L69.2664 38.4274C70.1916 36.3432 72.2579 35 74.5382 35C76.8186 35 78.8849 36.3432 79.8104 38.4271L90.9224 63.4502L102.229 52.1436ZM47.9256 103.463H101.151C104.337 103.463 106.919 106.045 106.919 109.231C106.919 112.417 104.337 115 101.151 115H47.9256C44.7397 115 42.1571 112.417 42.1571 109.231C42.1571 106.045 44.7397 103.463 47.9256 103.463Z" fill="white"/>
</svg>
