<svg width="246" height="533" xmlns="http://www.w3.org/2000/svg" xmlns:xlink="http://www.w3.org/1999/xlink" overflow="hidden"><defs><clipPath id="clip0"><rect x="523" y="85" width="246" height="533"/></clipPath></defs><g clip-path="url(#clip0)" transform="translate(-523 -85)"><path d="M216.14 32.7848C212.559 32.8513 210.172 30.7232 210.172 26.9988 210.172 22.033 214.416 17.7767 220.074 17.7767 225.025 17.7767 229.269 20.6143 229.269 23.4519 229.269 26.2894 225.025 29.8363 220.074 31.9646 218.66 32.4966 217.333 32.7626 216.14 32.7848ZM87.105 47.571C71.5447 47.571 66.5938 44.0241 66.5938 33.3833 66.5938 21.3236 65.1792 21.3236 59.5209 29.8363 54.57 37.6396 52.4481 37.6396 52.4481 31.2551 52.4481 26.2894 49.619 24.1613 45.3753 26.2894 41.8388 28.4176 38.3025 27.7082 38.3025 24.1613 38.3025 19.9049 51.0335 15.6486 65.8865 14.2298 81.4467 12.811 92.0559 14.2298 90.6414 17.0674 88.5195 20.6143 90.6414 22.7425 95.5924 22.7425 100.543 22.7425 101.958 24.8706 99.836 27.7082 97.0069 29.8363 97.7142 35.5115 101.251 39.7678 105.494 45.4429 101.251 47.571 87.105 47.571ZM165.058 58.3935C163.193 58.8992 157.391 51.4727 150.76 39.0584 145.809 27.7082 140.151 17.0674 138.737 14.2298 137.322 12.1016 148.639 12.811 162.784 15.6486 177.637 19.1955 192.49 19.9049 196.027 17.7767 199.563 15.6486 200.978 19.9049 199.563 26.9988 198.148 36.2208 191.076 40.4771 178.344 39.7678 165.613 39.0584 160.662 41.896 163.492 48.2804 165.879 54.9311 166.177 58.0901 165.058 58.3935ZM131.995 89.9349C128.967 89.5137 125.298 88.1836 121.055 85.8781 104.787 76.6561 90.6414 50.4087 103.372 52.5368 109.031 53.9556 111.86 48.9898 110.445 39.0584 107.616 16.358 123.176 10.6828 138.737 29.8363 147.931 41.1866 149.346 47.571 143.688 51.1181 139.444 53.9556 138.029 62.4683 140.151 70.9809 144.395 84.282 141.08 91.1986 131.995 89.9349ZM152.175 136.245C147.931 136.245 142.98 133.407 140.858 129.151 138.737 125.604 141.566 122.057 147.224 122.057 153.59 122.057 158.541 125.604 158.541 129.151 158.541 133.407 155.711 136.245 152.175 136.245ZM97.6259 159.211C96.6533 160.364 95.946 158.591 95.5924 153.979 94.8851 141.92 93.4706 141.21 87.8123 150.432 82.1539 158.236 81.4467 155.398 84.9832 139.792 90.6414 113.544 93.4706 110.707 100.543 119.219 104.08 122.766 104.08 135.535 101.251 146.886 99.8361 153.98 98.5983 158.059 97.6259 159.211ZM125.736 194.071C121.53 193.517 115.838 184.927 115.396 173.842 114.689 162.492 113.982 141.92 113.274 127.732 111.86 107.869 113.982 100.775 121.762 100.775 128.835 100.775 130.249 105.741 127.42 117.801 123.884 131.279 126.713 135.535 140.151 139.082 162.077 144.757 169.857 165.33 154.297 176.68 147.931 181.646 139.444 183.774 136.615 181.646 133.078 179.518 130.249 181.646 130.249 185.193 130.249 191.843 128.26 194.404 125.736 194.071ZM83.1265 195.922C81.2699 196.188 80.7394 194.06 80.7394 189.449 80.7394 179.518 99.836 166.039 104.787 172.424 105.494 173.842 100.543 180.936 93.4706 188.03 88.166 192.996 84.9832 195.656 83.1265 195.922ZM126.713 213.568C116.104 213.568 117.518 210.731 133.786 203.637 156.419 193.705 168.443 196.543 151.468 207.184 145.809 211.44 134.493 213.568 126.713 213.568ZM99.1288 221.371C92.7633 221.371 90.6414 215.696 93.4706 203.637 97.0069 183.774 109.031 186.611 109.031 207.893 109.031 214.987 104.787 221.371 99.1288 221.371ZM123.176 235.559C119.64 235.559 116.104 232.722 116.104 228.465 116.104 224.918 119.64 221.371 123.176 221.371 127.42 221.371 130.249 224.918 130.249 228.465 130.249 232.722 127.42 235.559 123.176 235.559ZM41.3969 433.922C36.0038 433.834 31.2296 431.705 31.2296 427.804 31.2296 420 49.619 412.197 55.2773 417.872 57.3991 420 57.3991 424.966 55.2773 427.804 52.8018 432.06 46.7899 434.011 41.3969 433.922ZM43.0766 490.053C37.5952 488.989 30.876 482.072 25.5714 469.658 14.9622 446.248 19.2058 432.769 34.7661 439.154 47.4971 443.41 68.0083 428.513 62.35 419.291 60.2282 415.744 64.472 410.778 71.5447 408.65 99.836 399.428 115.396 388.787 111.153 381.693 109.031 377.437 114.689 380.984 123.884 388.787 147.224 409.36 185.417 428.513 193.905 423.547 198.148 421.419 200.978 423.547 200.978 428.513 200.978 436.316 190.368 437.026 144.395 432.06 96.2997 426.385 85.6904 427.094 70.1302 437.026 60.9355 443.41 53.1553 451.214 53.1553 454.051 53.8627 456.889 53.8627 466.111 53.1553 475.333 52.8018 486.328 48.558 491.117 43.0766 490.053ZM27.7264 530.931C28.4005 531.153 29.1078 530.843 29.815 529.956 32.6441 525.699 39.717 522.862 45.3753 522.862 56.6918 522.862 72.252 490.23 72.9594 463.983 73.6665 446.957 74.3739 446.957 149.346 449.795L225.025 451.923 225.732 417.872C226.44 398.719 223.611 381.693 220.781 380.275 217.245 378.146 216.538 356.155 218.66 331.327 220.781 305.789 219.367 284.507 215.831 281.67 211.587 279.541 210.172 273.157 212.294 267.482 214.416 261.807 213.709 253.294 210.172 248.328 206.636 241.944 203.807 246.909 200.978 262.516 198.856 275.285 194.612 285.216 190.368 285.216 186.832 284.507 184.003 280.251 185.417 275.285 186.125 270.319 180.466 260.388 172.686 253.294 160.662 241.944 158.541 241.944 158.541 251.875 158.541 258.26 164.199 266.772 171.272 270.319 181.881 276.704 181.881 277.413 171.979 278.123 147.931 278.123 143.688 261.097 158.541 219.243 175.515 171.005 176.223 142.629 162.077 114.254 155.711 102.903 152.882 90.1344 155.004 87.2969 160.662 76.6561 220.074 44.0241 232.098 44.0241 239.878 44.0241 243.414 37.6396 243.414 22.033 243.414 19.0182 243.591 16.2693 243.923 13.8861L244 13.5664 243.445 11.4656C241.888 6.27654 238.944 2.74766 220.841 0L207.907 0 207.796 0.00514445C186.575 0.923271 155.269 1.77116 121.055 2.17012 10.0111 2.87953 10.0111 2.87953 10.0111 19.1955 10.0111 30.5457 14.9622 36.2208 29.815 39.7678 40.4243 41.896 59.5209 52.5368 72.252 63.1776L95.5924 83.0405 82.8612 107.869C68.7156 135.535 68.0083 210.021 81.4467 226.337 85.6904 231.303 87.8123 243.363 86.3977 253.294 82.8612 271.738 92.7633 277.413 106.202 263.935 111.153 258.969 128.127 263.935 156.419 278.832 193.905 297.276 199.563 302.951 196.734 317.139 195.319 326.361 196.734 336.292 200.978 338.421 218.66 349.771 205.221 354.027 182.588 344.805 168.443 339.13 155.004 335.583 152.882 337.711 150.76 339.839 159.248 345.515 171.272 349.771 191.783 356.865 193.905 360.412 193.905 385.24L193.905 412.907 165.613 398.719C139.444 385.24 133.078 377.437 137.322 359.702 142.273 337.002 140.858 330.617 127.42 319.267L112.567 307.208 130.957 306.498C140.858 306.498 152.882 310.755 157.833 315.72 164.906 322.814 165.613 322.105 162.077 312.173 156.419 297.985 132.371 295.857 106.909 307.208 92.0559 314.301 90.6414 317.848 94.8851 349.062L99.1288 383.112 68.0083 392.334C26.9859 403.684-2.01272 428.513 0.109204 449.795 0.816408 459.017 2.23102 470.367 2.23102 475.333 2.93833 480.299 6.47467 482.427 10.0111 480.299 19.2058 474.623 19.2058 481.008 10.0111 498.743 5.06015 506.546 5.06015 512.221 9.30379 512.221 12.8402 512.221 17.7913 507.965 19.2058 503.708 21.3276 498.743 23.4495 504.418 23.4495 515.768 23.98 524.813 25.704 530.266 27.7264 530.931Z" fill="#ffffff" fill-rule="evenodd" transform="matrix(1 0 0 -1 524 617)"/><path d="M3.60988 15.2132C-2.52664-1.3797-1.84487-2.10115 13.1558 2.22746 21.3379 4.39171 26.1108 9.44176 24.7471 13.7704 20.656 26.7561 8.38287 27.4775 3.60988 15.2132Z" fill="#ffffff" fill-rule="evenodd" transform="matrix(1 0 0 -1 648 471)"/><path d="M13.9753 15.3085C13.9753 10.2029 11.176 8.74407 6.97721 10.9322 3.47811 13.1204-0.0209869 11.6616-0.0209869 8.01467-0.0209869 3.63837 2.77827-0.00852785 6.27737-0.00852785 15.375-0.00852785 23.7728 14.5791 18.1742 19.6848 16.0748 22.6023 13.9753 20.4142 13.9753 15.3085Z" fill="#ffffff" fill-rule="evenodd" transform="matrix(1 0 0 -1 640 552)"/><path d="M5.05654 17.2117C14.1241 4.96197 51.0925-6.56729 44.1173 4.24137 42.0248 7.84426 35.0496 10.7266 28.0745 10.7266 21.7969 10.7266 12.0316 15.05 6.45152 20.0941-1.91865 27.2999-1.91865 26.5793 5.05654 17.2117Z" fill="#ffffff" fill-rule="evenodd" transform="matrix(1 0 0 -1 563 250)"/><path d="M12.6073 20.9201C-0.890017 13.686-4.44196-0.0585631 6.21377-0.0585631 9.76572-0.0585631 19.711 6.45201 28.9461 14.4094 47.4161 29.6008 35.3395 34.6647 12.6073 20.9201Z" fill="#ffffff" fill-rule="evenodd" transform="matrix(1 0 0 -1 668 254)"/><path d="M-0.0129832 91.1177C-0.0129832 86.8439 9.86054 71.1728 22.5552 57.6387 39.4813 37.6937 42.3024 29.8583 35.2499 25.5844 30.313 22.735 28.1972 14.8995 30.313 7.77628 33.134 1.36543 38.0709-1.48382 42.3024 0.653092 52.8813 7.06404 50.7654 19.8857 40.8919 14.1872 33.8393 10.6256 33.8393 11.3379 39.4813 17.7488 45.8287 24.872 51.4707 24.872 62.7548 18.4612 71.2179 14.1872 83.9125 12.0502 90.2598 13.4749 98.7229 15.6118 98.0176 17.0365 86.7335 17.7488 69.1021 18.4612 15.5026 69.7481 28.1972 74.0221 32.4288 75.4468 42.3024 71.1728 50.0602 64.0496 62.7548 52.6525 63.4601 52.6525 59.2285 63.3373 57.1127 70.4605 46.5339 77.5837 35.955 79.7206 26.0815 82.5699 13.3868 87.5561 9.15537 91.83 2.80804 96.104-0.0129832 96.104-0.0129832 91.1177Z" fill="#ffffff" fill-rule="evenodd" transform="matrix(1 0 0 -1 541 343)"/><path d="M-0.0308803 14.8238C-0.0308803 1.57532 1.19995-4.00305 3.04609 2.96984 4.27692 9.24552 4.27692 20.4022 3.04609 27.3751 1.19995 33.6506-0.0308803 28.0724-0.0308803 14.8238Z" fill="#ffffff" fill-rule="evenodd" transform="matrix(1 0 0 -1 755 297)"/><path d="M-0.0267223 7.31518C-0.0267223 1.42092 3.33131-1.52615 6.68944 0.684238 10.7192 3.63131 12.0624 8.78866 10.0476 12.4726 4.00295 22.7875-0.0267223 20.5771-0.0267223 7.31518Z" fill="#ffffff" fill-rule="evenodd" transform="matrix(1 0 0 -1 697 308)"/><path d="M-0.0346064 10.283C-0.0346064 2.59487 3.46542-1.59865 6.96545 0.498163 11.1654 2.59487 13.9654 9.58405 13.9654 15.1755 13.9654 20.7668 11.1654 24.9603 6.96545 24.9603 3.46542 24.9603-0.0346064 18.67-0.0346064 10.283Z" fill="#ffffff" fill-rule="evenodd" transform="matrix(1 0 0 -1 746 357)"/><path d="M-0.0130966 12.3526C-0.0130966 2.24198 7.81257-2.81338 18.4838 1.51977 24.1751 3.6864 26.3093 8.01956 24.1751 11.6305 19.1952 19.5746-0.0130966 20.2967-0.0130966 12.3526Z" fill="#ffffff" fill-rule="evenodd" transform="matrix(1 0 0 -1 576 371)"/><path d="M6.59031 15.9899C-4.4803 2.28185-1.02074-4.93293 12.1256 3.72474 16.9689 7.33213 20.4284 13.8255 18.3526 18.8758 16.277 25.3692 12.8174 23.9262 6.59031 15.9899Z" fill="#ffffff" fill-rule="evenodd" transform="matrix(1 0 0 -1 733 393)"/><path d="M13.7702 43.6307C13.7702 35.8872 10.9757 26.7359 6.78407 24.6239-2.29797 18.9923-2.29797-0.0144817 6.78407-0.0144817 14.4688-0.0144817 24.2494 47.8545 17.9619 54.1902 15.866 57.006 13.7702 52.0782 13.7702 43.6307Z" fill="#ffffff" fill-rule="evenodd" transform="matrix(1 0 0 -1 690 530)"/></g></svg>